<?xml version="1.0" encoding="UTF-8"?>
<!DOCTYPE svg PUBLIC "-//W3C//DTD SVG 1.1//EN" "http://www.w3.org/Graphics/SVG/1.1/DTD/svg11.dtd">
<svg xmlns="http://www.w3.org/2000/svg" version="1.1" width="5000px" height="5000px" style="shape-rendering:geometricPrecision; text-rendering:geometricPrecision; image-rendering:optimizeQuality; fill-rule:evenodd; clip-rule:evenodd" xmlns:xlink="http://www.w3.org/1999/xlink">
<g><path style="opacity:1" fill="#fefefe" d="M -0.5,-0.5 C 1666.17,-0.5 3332.83,-0.5 4999.5,-0.5C 4999.5,1666.17 4999.5,3332.83 4999.5,4999.5C 3332.83,4999.5 1666.17,4999.5 -0.5,4999.5C -0.5,3332.83 -0.5,1666.17 -0.5,-0.5 Z"/></g>
<g><path style="opacity:1" fill="#000000" d="M 818.5,500.5 C 1223.63,922.468 1628.63,1344.63 2033.5,1767C 2344.17,1767.67 2654.83,1767.67 2965.5,1767C 3370.33,1344.83 3775.17,922.667 4180,500.5C 4175.22,541.152 4170.22,581.818 4165,622.5C 4078.85,1265.72 3993.02,1909.06 3907.5,2552.5C 3907.67,2553.83 3907.83,2555.17 3908,2556.5C 4092,2897.17 4276,3237.83 4460,3578.5C 4460.75,3579.64 4460.58,3580.64 4459.5,3581.5C 3806.13,3887.52 3152.8,4193.52 2499.5,4499.5C 1846.12,4193.7 1192.79,3887.7 539.5,3581.5C 538.417,3580.64 538.251,3579.64 539,3578.5C 723.438,3237.29 907.605,2895.96 1091.5,2554.5C 1000.5,1869.85 909.501,1185.18 818.5,500.5 Z"/></g>
<g><path style="opacity:1" fill="#f2510c" d="M 4278.5,3527.5 C 4016.53,3456.8 3754.37,3386.46 3492,3316.5C 3278.68,3490.32 3065.51,3664.32 2852.5,3838.5C 2735.04,3790.94 2617.37,3743.61 2499.5,3696.5C 2381.63,3743.61 2263.96,3790.94 2146.5,3838.5C 1936.71,3667.21 1727.04,3495.71 1517.5,3324C 1514.14,3320.99 1510.47,3318.49 1506.5,3316.5C 1243.9,3386.4 981.57,3456.73 719.5,3527.5C 716.577,3526.7 713.91,3525.37 711.5,3523.5C 881,3209.17 1050.5,2894.83 1220,2580.5C 1220.67,2576.5 1220.67,2572.5 1220,2568.5C 1144,1999.87 1068.34,1431.2 993,862.5C 1322.2,1205.36 1651.03,1548.53 1979.5,1892C 2326.17,1892.67 2672.83,1892.67 3019.5,1892C 3347.97,1548.53 3676.8,1205.36 4006,862.5C 3930.66,1431.5 3855,2000.5 3779,2569.5C 3778.33,2573.17 3778.33,2576.83 3779,2580.5C 3948.08,2894.33 4117.41,3207.99 4287,3521.5C 4287.75,3522.64 4287.58,3523.64 4286.5,3524.5C 4283.96,3525.9 4281.3,3526.9 4278.5,3527.5 Z"/></g>
<g><path style="opacity:1" fill="#000000" d="M 1240.5,1622.5 C 1240.23,1617.97 1239.56,1613.64 1238.5,1609.5C 1228.23,1521.2 1218.39,1432.86 1209,1344.5C 1387.65,1524.65 1566.49,1704.65 1745.5,1884.5C 1606.14,2046.54 1466.31,2208.21 1326,2369.5C 1297.53,2120.48 1269.03,1871.48 1240.5,1622.5 Z"/></g>
<g><path style="opacity:1" fill="#000000" d="M 3789.5,1344.5 C 3790.16,1345.62 3790.49,1346.95 3790.5,1348.5C 3752.46,1677.47 3714.62,2006.47 3677,2335.5C 3675.69,2346.65 3674.03,2357.65 3672,2368.5C 3531.94,2207.61 3392.44,2046.28 3253.5,1884.5C 3432.55,1704.78 3611.22,1524.78 3789.5,1344.5 Z"/></g>
<g><path style="opacity:1" fill="#ad3a0a" d="M 1238.5,1609.5 C 1239.56,1613.64 1240.23,1617.97 1240.5,1622.5C 1239.96,1619.96 1238.63,1617.79 1236.5,1616C 1238.25,1614.25 1238.92,1612.08 1238.5,1609.5 Z"/></g>
<g><path style="opacity:1" fill="#000000" d="M 1514.5,2776.5 C 1747.68,2854.06 1981.01,2932.23 2214.5,3011C 2114.53,3054.33 2014.53,3097.66 1914.5,3141C 1890.67,3148.29 1866.67,3154.62 1842.5,3160C 1733.3,3031.97 1623.97,2904.14 1514.5,2776.5 Z"/></g>
<g><path style="opacity:1" fill="#000000" d="M 3479.5,2776.5 C 3480.87,2776.34 3482.21,2776.51 3483.5,2777C 3374.5,2904.67 3265.5,3032.33 3156.5,3160C 3132.97,3155.02 3109.63,3149.02 3086.5,3142C 2985.72,3098.52 2885.05,3054.85 2784.5,3011C 3016.33,2932.89 3248,2854.72 3479.5,2776.5 Z"/></g>
<g><path style="opacity:1" fill="#fefefe" d="M 2146.5,3838.5 C 2263.83,3935.16 2381.5,4031.49 2499.5,4127.5C 2617.5,4031.49 2735.17,3935.16 2852.5,3838.5C 3065.51,3664.32 3278.68,3490.32 3492,3316.5C 3754.37,3386.46 4016.53,3456.8 4278.5,3527.5C 3685.74,3805.71 3092.74,4083.71 2499.5,4361.5C 1906.02,4083.68 1312.68,3805.68 719.5,3527.5C 981.57,3456.73 1243.9,3386.4 1506.5,3316.5C 1510.47,3318.49 1514.14,3320.99 1517.5,3324C 1727.04,3495.71 1936.71,3667.21 2146.5,3838.5 Z"/></g>
<g><path style="opacity:1" fill="#000000" d="M 2852.5,3838.5 C 2735.17,3935.16 2617.5,4031.49 2499.5,4127.5C 2381.5,4031.49 2263.83,3935.16 2146.5,3838.5C 2263.96,3790.94 2381.63,3743.61 2499.5,3696.5C 2617.37,3743.61 2735.04,3790.94 2852.5,3838.5 Z"/></g>
</svg>
